<?xml version="1.0" encoding="UTF-8"?>
<svg xmlns="http://www.w3.org/2000/svg" viewBox="0 0 64 64" width="64" height="64" role="img">
  <title>GitHub Dashboard</title>
  <defs>
    <linearGradient id="g" x1="0" x2="1" y1="0" y2="1">
      <stop offset="0" stop-color="#eaf6ff"/>
      <stop offset="1" stop-color="#ffffff"/>
    </linearGradient>
  </defs>
  <rect x="4" y="4" width="56" height="56" rx="14" ry="14" fill="url(#g)"/>
  <g fill="#ffffff">
    <path d="M20 24h8c3.866 0 7 3.134 7 7s-3.134 7-7 7h-5v6h-3V24zm8 11c2.21 0 4-1.79 4-4s-1.79-4-4-4h-5v8h5z"/>
    <path d="M36 24h3v10.5c0 2.485 2.015 4.5 4.5 4.5S48 37 48 34.5V24h3v10.5c0 4.142-3.358 7.5-7.5 7.5S36 38.642 36 34.5V24z"/>
  </g>
</svg>
